<svg xmlns="http://www.w3.org/2000/svg" width="24" height="24" viewBox="0 0 24 24">
  <g id="post_add-24px" transform="translate(24) rotate(90)" opacity="0.53">
    <g id="Group_2615" data-name="Group 2615">
      <rect id="Rectangle_100" data-name="Rectangle 100" width="24" height="24" fill="none"/>
    </g>
    <g id="Group_2617" data-name="Group 2617">
      <g id="Group_2616" data-name="Group 2616">
        <path id="Path_1367" data-name="Path 1367" d="M17,19.22H5V7h7V5H5A2.006,2.006,0,0,0,3,7V19a2.006,2.006,0,0,0,2,2H17a2.006,2.006,0,0,0,2-2V12H17Z" fill="#2d3e50"/>
        <path id="Path_1368" data-name="Path 1368" d="M19,2H17V5H14c.01.01,0,2,0,2h3V9.99c.01.01,2,0,2,0V7h3V5H19Z" transform="translate(-7 7)" fill="#2d3e50"/>
      </g>
    </g>
  </g>
</svg>
