<svg xmlns="http://www.w3.org/2000/svg" width="17.965" height="18" viewBox="0 0 17.965 18">
  <path id="Path_1383" data-name="Path 1383" d="M233.982,108.476v2.71a1.807,1.807,0,0,1-1.8,1.814c-.057,0-.114,0-.17-.007a17.872,17.872,0,0,1-7.795-2.773,17.608,17.608,0,0,1-5.42-5.42,17.886,17.886,0,0,1-2.773-7.831,1.807,1.807,0,0,1,1.637-1.962c.053,0,.107-.007.161-.007h2.709a1.807,1.807,0,0,1,1.807,1.554,11.573,11.573,0,0,0,.632,2.538,1.807,1.807,0,0,1-.406,1.906l-1.147,1.147a14.449,14.449,0,0,0,5.419,5.419l1.147-1.147a1.805,1.805,0,0,1,1.906-.406,11.616,11.616,0,0,0,2.538.632A1.807,1.807,0,0,1,233.982,108.476Z" transform="translate(-216.018 -95)" fill="#28a0dc"/>
</svg>
