<svg xmlns="http://www.w3.org/2000/svg" width="27.999" height="16.32" viewBox="0 0 27.999 16.32">
  <g id="Group_2614" data-name="Group 2614" transform="translate(-28.904 -89.68)" opacity="0.53">
    <g id="Group_2607" data-name="Group 2607" transform="translate(28.904 89.68)">
      <path id="Path_1329" data-name="Path 1329" d="M192.493,159.563l-5.013,2.167v-1.978a2.12,2.12,0,0,0-2.076-2.161H166.571a2.12,2.12,0,0,0-2.076,2.161v12a2.12,2.12,0,0,0,2.076,2.161h18.834a2.12,2.12,0,0,0,2.076-2.161v-1.978l5.013,2.167V159.563Z" transform="translate(-164.495 -157.591)" fill="#2d3e50"/>
    </g>
    <g id="Group_2608" data-name="Group 2608" transform="translate(40.723 89.68)">
      <path id="Path_1330" data-name="Path 1330" d="M267.081,161.731v-1.978a2.161,2.161,0,0,0-2.161-2.161h-8.8v16.32h8.8a2.161,2.161,0,0,0,2.161-2.161v-1.978l5.218,2.167V159.564Z" transform="translate(-256.12 -157.592)" fill="#2d3e50"/>
    </g>
  </g>
</svg>
